<mxfile host="app.diagrams.net" modified="2023-03-22T21:27:37.261Z" agent="5.0 (Windows)" etag="TpgAx1hlO09-DVBuTaWZ" version="21.0.10" type="github">
  <diagram name="Page-1" id="jTgoiPRyH_wtlVoX9hBD">
    <mxGraphModel dx="1205" dy="491" grid="1" gridSize="10" guides="1" tooltips="1" connect="1" arrows="1" fold="1" page="1" pageScale="1" pageWidth="827" pageHeight="1169" math="0" shadow="0">
      <root>
        <mxCell id="0" />
        <mxCell id="1" parent="0" />
        <mxCell id="ks_e0K6Obnc2zDYWN54F-1" value="&lt;div&gt;Get money as an attacker &lt;br&gt;&lt;/div&gt;" style="rounded=0;whiteSpace=wrap;html=1;" parent="1" vertex="1">
          <mxGeometry x="450" y="50" width="130" height="80" as="geometry" />
        </mxCell>
        <mxCell id="ks_e0K6Obnc2zDYWN54F-2" value="&lt;div&gt;steal an existing &lt;br&gt;&lt;/div&gt;&lt;div&gt;patient&#39;s id &lt;br&gt;&lt;/div&gt;&lt;div&gt;NSE/ cheap&lt;br&gt;&lt;/div&gt;" style="rounded=0;whiteSpace=wrap;html=1;" parent="1" vertex="1">
          <mxGeometry x="60" y="410" width="120" height="60" as="geometry" />
        </mxCell>
        <mxCell id="ks_e0K6Obnc2zDYWN54F-3" value="&lt;div&gt;get an exposed patient id &lt;br&gt;&lt;/div&gt;&lt;div&gt;NSE/ cheap&lt;br&gt;&lt;/div&gt;" style="rounded=0;whiteSpace=wrap;html=1;" parent="1" vertex="1">
          <mxGeometry y="525" width="120" height="60" as="geometry" />
        </mxCell>
        <mxCell id="ks_e0K6Obnc2zDYWN54F-4" value="&lt;div&gt;create a new patient account&lt;/div&gt;NSE/ CHF 2500" style="rounded=0;whiteSpace=wrap;html=1;" parent="1" vertex="1">
          <mxGeometry x="230" y="410" width="120" height="60" as="geometry" />
        </mxCell>
        <mxCell id="ks_e0K6Obnc2zDYWN54F-5" value="&lt;div&gt;change reciever&#39;s bank acount number&lt;/div&gt;&lt;div&gt;NSE/ cheap&lt;br&gt;&lt;/div&gt;" style="rounded=0;whiteSpace=wrap;html=1;" parent="1" vertex="1">
          <mxGeometry x="80" y="600" width="120" height="60" as="geometry" />
        </mxCell>
        <mxCell id="ks_e0K6Obnc2zDYWN54F-6" value="&lt;div&gt;buy a stolen/ lost id card&lt;br&gt;&lt;/div&gt;&lt;div&gt;NSE/ CHF 500&lt;/div&gt;" style="rounded=0;whiteSpace=wrap;html=1;" parent="1" vertex="1">
          <mxGeometry x="191" y="520" width="120" height="60" as="geometry" />
        </mxCell>
        <mxCell id="ks_e0K6Obnc2zDYWN54F-7" value="&lt;div&gt;buy insurance with this id &lt;br&gt;&lt;/div&gt;&lt;div&gt;NSE/ CHF 2000&lt;br&gt;&lt;/div&gt;" style="rounded=0;whiteSpace=wrap;html=1;" parent="1" vertex="1">
          <mxGeometry x="280" y="600" width="120" height="60" as="geometry" />
        </mxCell>
        <mxCell id="ks_e0K6Obnc2zDYWN54F-8" value="&lt;div&gt;bribe insurance staff to approve false claims&lt;/div&gt;&lt;div&gt;NSE/ CHF 5000&lt;br&gt;&lt;/div&gt;" style="rounded=0;whiteSpace=wrap;html=1;" parent="1" vertex="1">
          <mxGeometry x="410" y="260" width="120" height="60" as="geometry" />
        </mxCell>
        <mxCell id="ks_e0K6Obnc2zDYWN54F-12" value="" style="endArrow=none;html=1;rounded=0;entryX=0.5;entryY=0;entryDx=0;entryDy=0;exitX=0.5;exitY=1;exitDx=0;exitDy=0;" parent="1" source="ks_e0K6Obnc2zDYWN54F-1" target="ks_e0K6Obnc2zDYWN54F-8" edge="1">
          <mxGeometry width="50" height="50" relative="1" as="geometry">
            <mxPoint x="390" y="140" as="sourcePoint" />
            <mxPoint x="440" y="90" as="targetPoint" />
          </mxGeometry>
        </mxCell>
        <mxCell id="ks_e0K6Obnc2zDYWN54F-14" value="&lt;div&gt;bribe admin&lt;/div&gt;&lt;div&gt;NSE/ CHF 2000&lt;/div&gt;" style="rounded=0;whiteSpace=wrap;html=1;" parent="1" vertex="1">
          <mxGeometry x="380" y="410" width="120" height="60" as="geometry" />
        </mxCell>
        <mxCell id="ks_e0K6Obnc2zDYWN54F-15" value="&lt;div&gt;fake a patient id&lt;/div&gt;&lt;div&gt;NSE/ cheap&lt;/div&gt;" style="rounded=0;whiteSpace=wrap;html=1;" parent="1" vertex="1">
          <mxGeometry x="220" y="260" width="120" height="60" as="geometry" />
        </mxCell>
        <mxCell id="ks_e0K6Obnc2zDYWN54F-16" value="" style="endArrow=none;html=1;rounded=0;entryX=0.067;entryY=0.983;entryDx=0;entryDy=0;entryPerimeter=0;" parent="1" source="ks_e0K6Obnc2zDYWN54F-2" target="ks_e0K6Obnc2zDYWN54F-15" edge="1">
          <mxGeometry width="50" height="50" relative="1" as="geometry">
            <mxPoint x="140" y="430" as="sourcePoint" />
            <mxPoint x="190" y="380" as="targetPoint" />
          </mxGeometry>
        </mxCell>
        <mxCell id="ks_e0K6Obnc2zDYWN54F-17" value="" style="endArrow=none;html=1;rounded=1;entryX=0.592;entryY=1.05;entryDx=0;entryDy=0;entryPerimeter=0;" parent="1" source="ks_e0K6Obnc2zDYWN54F-4" target="ks_e0K6Obnc2zDYWN54F-15" edge="1">
          <mxGeometry width="50" height="50" relative="1" as="geometry">
            <mxPoint x="210" y="430" as="sourcePoint" />
            <mxPoint x="260" y="380" as="targetPoint" />
          </mxGeometry>
        </mxCell>
        <mxCell id="ks_e0K6Obnc2zDYWN54F-18" value="" style="endArrow=none;html=1;rounded=0;exitX=0;exitY=0;exitDx=0;exitDy=0;entryX=1;entryY=1;entryDx=0;entryDy=0;" parent="1" source="ks_e0K6Obnc2zDYWN54F-14" target="ks_e0K6Obnc2zDYWN54F-15" edge="1">
          <mxGeometry width="50" height="50" relative="1" as="geometry">
            <mxPoint x="250" y="430" as="sourcePoint" />
            <mxPoint x="340" y="390" as="targetPoint" />
          </mxGeometry>
        </mxCell>
        <mxCell id="ks_e0K6Obnc2zDYWN54F-21" value="&lt;div&gt;hack Document Assessment Application&lt;/div&gt;&lt;div&gt;NSE/ cheap&lt;br&gt;&lt;/div&gt;" style="rounded=0;whiteSpace=wrap;html=1;" parent="1" vertex="1">
          <mxGeometry x="550" y="260" width="120" height="60" as="geometry" />
        </mxCell>
        <mxCell id="ks_e0K6Obnc2zDYWN54F-22" value="&lt;div&gt;interfere with evaluation process &lt;br&gt;&lt;/div&gt;&lt;div&gt;NSE/ cheap&lt;/div&gt;" style="rounded=0;whiteSpace=wrap;html=1;" parent="1" vertex="1">
          <mxGeometry x="520" y="410" width="120" height="60" as="geometry" />
        </mxCell>
        <mxCell id="ks_e0K6Obnc2zDYWN54F-23" value="&lt;div&gt;erase the log record&lt;br&gt;&lt;/div&gt;&lt;div&gt;NSE/ cheap&lt;/div&gt;" style="rounded=0;whiteSpace=wrap;html=1;" parent="1" vertex="1">
          <mxGeometry x="620" y="490" width="120" height="60" as="geometry" />
        </mxCell>
        <mxCell id="ks_e0K6Obnc2zDYWN54F-24" value="&lt;div&gt;hack the databse and change the receiver&#39;s accounts&lt;/div&gt;&lt;div&gt;NSE/ cheap&lt;/div&gt;" style="rounded=0;whiteSpace=wrap;html=1;" parent="1" vertex="1">
          <mxGeometry x="690" y="260" width="120" height="60" as="geometry" />
        </mxCell>
        <mxCell id="ks_e0K6Obnc2zDYWN54F-25" value="" style="endArrow=none;html=1;rounded=0;exitX=0.633;exitY=-0.017;exitDx=0;exitDy=0;exitPerimeter=0;entryX=0.25;entryY=1;entryDx=0;entryDy=0;" parent="1" source="ks_e0K6Obnc2zDYWN54F-15" target="ks_e0K6Obnc2zDYWN54F-1" edge="1">
          <mxGeometry width="50" height="50" relative="1" as="geometry">
            <mxPoint x="290" y="190" as="sourcePoint" />
            <mxPoint x="340" y="140" as="targetPoint" />
          </mxGeometry>
        </mxCell>
        <mxCell id="ks_e0K6Obnc2zDYWN54F-26" value="" style="endArrow=none;html=1;rounded=0;entryX=0.692;entryY=-0.05;entryDx=0;entryDy=0;entryPerimeter=0;" parent="1" target="ks_e0K6Obnc2zDYWN54F-24" edge="1">
          <mxGeometry width="50" height="50" relative="1" as="geometry">
            <mxPoint x="550" y="130" as="sourcePoint" />
            <mxPoint x="470" y="90" as="targetPoint" />
          </mxGeometry>
        </mxCell>
        <mxCell id="g4srcyuWKNFCiyld1sz4-1" value="" style="endArrow=none;html=1;rounded=0;exitX=0.625;exitY=0;exitDx=0;exitDy=0;exitPerimeter=0;" parent="1" source="ks_e0K6Obnc2zDYWN54F-3" edge="1">
          <mxGeometry width="50" height="50" relative="1" as="geometry">
            <mxPoint x="70" y="530" as="sourcePoint" />
            <mxPoint x="120" y="470" as="targetPoint" />
          </mxGeometry>
        </mxCell>
        <mxCell id="g4srcyuWKNFCiyld1sz4-2" value="" style="endArrow=none;html=1;rounded=0;exitX=0.658;exitY=0.033;exitDx=0;exitDy=0;exitPerimeter=0;" parent="1" source="ks_e0K6Obnc2zDYWN54F-5" edge="1">
          <mxGeometry width="50" height="50" relative="1" as="geometry">
            <mxPoint x="110" y="520" as="sourcePoint" />
            <mxPoint x="160" y="470" as="targetPoint" />
          </mxGeometry>
        </mxCell>
        <mxCell id="g4srcyuWKNFCiyld1sz4-3" value="" style="endArrow=none;html=1;rounded=0;" parent="1" edge="1">
          <mxGeometry width="50" height="50" relative="1" as="geometry">
            <mxPoint x="240" y="520" as="sourcePoint" />
            <mxPoint x="290" y="470" as="targetPoint" />
          </mxGeometry>
        </mxCell>
        <mxCell id="g4srcyuWKNFCiyld1sz4-4" value="" style="endArrow=none;html=1;rounded=0;exitX=0.5;exitY=0;exitDx=0;exitDy=0;" parent="1" source="ks_e0K6Obnc2zDYWN54F-7" edge="1">
          <mxGeometry width="50" height="50" relative="1" as="geometry">
            <mxPoint x="290" y="520" as="sourcePoint" />
            <mxPoint x="340" y="470" as="targetPoint" />
          </mxGeometry>
        </mxCell>
        <mxCell id="g4srcyuWKNFCiyld1sz4-5" value="" style="endArrow=none;html=1;rounded=0;entryX=0.65;entryY=1.033;entryDx=0;entryDy=0;entryPerimeter=0;" parent="1" source="ks_e0K6Obnc2zDYWN54F-21" target="ks_e0K6Obnc2zDYWN54F-1" edge="1">
          <mxGeometry width="50" height="50" relative="1" as="geometry">
            <mxPoint x="530" y="180" as="sourcePoint" />
            <mxPoint x="580" y="130" as="targetPoint" />
          </mxGeometry>
        </mxCell>
        <mxCell id="g4srcyuWKNFCiyld1sz4-6" value="" style="endArrow=none;html=1;rounded=0;exitX=0.358;exitY=0.017;exitDx=0;exitDy=0;exitPerimeter=0;" parent="1" source="ks_e0K6Obnc2zDYWN54F-22" edge="1">
          <mxGeometry width="50" height="50" relative="1" as="geometry">
            <mxPoint x="550" y="370" as="sourcePoint" />
            <mxPoint x="600" y="320" as="targetPoint" />
          </mxGeometry>
        </mxCell>
        <mxCell id="g4srcyuWKNFCiyld1sz4-7" value="" style="endArrow=none;html=1;rounded=0;exitX=0.808;exitY=-0.017;exitDx=0;exitDy=0;exitPerimeter=0;" parent="1" source="ks_e0K6Obnc2zDYWN54F-23" edge="1">
          <mxGeometry width="50" height="50" relative="1" as="geometry">
            <mxPoint x="610" y="370" as="sourcePoint" />
            <mxPoint x="660" y="320" as="targetPoint" />
          </mxGeometry>
        </mxCell>
        <mxCell id="g4srcyuWKNFCiyld1sz4-8" value="and" style="text;html=1;strokeColor=none;fillColor=none;align=center;verticalAlign=middle;whiteSpace=wrap;rounded=0;" parent="1" vertex="1">
          <mxGeometry x="600" y="320" width="60" height="30" as="geometry" />
        </mxCell>
        <mxCell id="g4srcyuWKNFCiyld1sz4-9" value="and" style="text;html=1;strokeColor=none;fillColor=none;align=center;verticalAlign=middle;whiteSpace=wrap;rounded=0;" parent="1" vertex="1">
          <mxGeometry x="100" y="470" width="60" height="30" as="geometry" />
        </mxCell>
        <mxCell id="g4srcyuWKNFCiyld1sz4-10" value="and" style="text;html=1;strokeColor=none;fillColor=none;align=center;verticalAlign=middle;whiteSpace=wrap;rounded=0;" parent="1" vertex="1">
          <mxGeometry x="280" y="470" width="60" height="30" as="geometry" />
        </mxCell>
        <mxCell id="g4srcyuWKNFCiyld1sz4-11" value="" style="endArrow=none;html=1;rounded=0;" parent="1" edge="1">
          <mxGeometry width="50" height="50" relative="1" as="geometry">
            <mxPoint x="440" y="520" as="sourcePoint" />
            <mxPoint x="440" y="470" as="targetPoint" />
          </mxGeometry>
        </mxCell>
        <mxCell id="g4srcyuWKNFCiyld1sz4-12" value="&lt;div&gt;create a patient account&lt;/div&gt;&lt;div&gt;NSE/ cheap&lt;br&gt;&lt;/div&gt;" style="rounded=0;whiteSpace=wrap;html=1;" parent="1" vertex="1">
          <mxGeometry x="360" y="520" width="120" height="60" as="geometry" />
        </mxCell>
        <mxCell id="g4srcyuWKNFCiyld1sz4-13" value="&lt;div&gt;erese the log record&lt;/div&gt;&lt;div&gt;NSE/ cheap&lt;br&gt;&lt;/div&gt;" style="rounded=0;whiteSpace=wrap;html=1;" parent="1" vertex="1">
          <mxGeometry x="430" y="600" width="120" height="60" as="geometry" />
        </mxCell>
        <mxCell id="g4srcyuWKNFCiyld1sz4-14" value="" style="endArrow=none;html=1;rounded=0;" parent="1" source="g4srcyuWKNFCiyld1sz4-13" edge="1">
          <mxGeometry width="50" height="50" relative="1" as="geometry">
            <mxPoint x="440" y="520" as="sourcePoint" />
            <mxPoint x="490" y="470" as="targetPoint" />
          </mxGeometry>
        </mxCell>
        <mxCell id="g4srcyuWKNFCiyld1sz4-19" value="&lt;span id=&quot;page14R_mcid39&quot; class=&quot;markedContent&quot;&gt;&lt;/span&gt;" style="text;html=1;strokeColor=none;fillColor=none;align=center;verticalAlign=middle;whiteSpace=wrap;rounded=0;" parent="1" vertex="1">
          <mxGeometry y="730" width="680" height="30" as="geometry" />
        </mxCell>
      </root>
    </mxGraphModel>
  </diagram>
</mxfile>
